<svg xmlns="http://www.w3.org/2000/svg" viewBox="0 0 32 32">
  <defs>
    <style>
      .cls-1 {
        fill: #999;
      }
    </style>
  </defs>
  <title>icon</title>
  <g id="Layer_2" data-name="Layer 2">
    <g>
      <polygon class="cls-1" points="21.31 28.92 20.25 28.92 20.25 11.84 3.23 11.84 3.23 10.79 21.31 10.79 21.31 28.92"/>
      <rect class="cls-1" x="20.72" y="15.66" width="4.48" height="1.06"/>
      <rect class="cls-1" x="20.72" y="21.3" width="4.48" height="1.06"/>
      <rect class="cls-1" x="20.72" y="24.12" width="4.48" height="1.06"/>
      <rect class="cls-1" x="20.72" y="12.83" width="4.48" height="1.06"/>
      <rect class="cls-1" x="20.72" y="18.48" width="4.48" height="1.06"/>
      <rect class="cls-1" x="15.06" y="6.55" width="1.05" height="4.49"/>
      <rect class="cls-1" x="12.25" y="6.55" width="1.05" height="4.49"/>
      <rect class="cls-1" x="6.62" y="6.55" width="1.05" height="4.49"/>
      <rect class="cls-1" x="17.87" y="6.55" width="1.05" height="4.49"/>
      <rect class="cls-1" x="9.43" y="6.55" width="1.05" height="4.49"/>
      <path class="cls-1" d="M16,30A14,14,0,1,1,30,16,14,14,0,0,1,16,30ZM16,3.06A12.94,12.94,0,1,0,29,16,12.94,12.94,0,0,0,16,3.06Z"/>
    </g>
    <g>
      <path class="cls-1" d="M8.43,19.61v-.82H9.78v2.4a13.64,13.64,0,0,1-1.58.15c-1.51,0-1.89-.84-1.89-2.39s.48-2.45,1.85-2.45a9.45,9.45,0,0,1,1.62.19l0,.73s-.82-.09-1.44-.09c-.8,0-1,.32-1,1.62s.17,1.58,1,1.58c.27,0,.56,0,.56,0v-.89Z"/>
      <path class="cls-1" d="M11.6,19.85v1.43h-.94V16.57h1.7A1.44,1.44,0,0,1,14,18.18a1.49,1.49,0,0,1-1.65,1.67Zm0-.8h.76c.47,0,.7-.29.7-.87s-.23-.81-.7-.81H11.6Z"/>
      <path class="cls-1" d="M15.57,19.72c0,.55.27.81.83.81a.72.72,0,0,0,.82-.81V16.57h.94V19.7c0,1.16-.61,1.64-1.76,1.64s-1.77-.48-1.77-1.64V16.57h.94Z"/>
    </g>
  </g>
</svg>
