<svg xmlns="http://www.w3.org/2000/svg" viewBox="0 0 32 32"><defs><style>.cls-1{fill:#999;}</style></defs><title>icon</title><g id="Layer_2" data-name="Layer 2"><path class="cls-1" d="M16,30A14,14,0,1,1,30,16,14,14,0,0,1,16,30ZM16,3.06A12.94,12.94,0,1,0,28.94,16,12.95,12.95,0,0,0,16,3.06Z"/><path class="cls-1" d="M23.57,19.36H8.43a.53.53,0,0,1-.53-.53V9.63a1,1,0,0,1,1-1.05H23.06a1,1,0,0,1,1,1.05v9.2A.53.53,0,0,1,23.57,19.36ZM9,18.3H23V9.64H8.94Z"/><path class="cls-1" d="M24.3,23.42H7.69a1.06,1.06,0,0,1-1.07-1.05V21.2a.53.53,0,0,1,.53-.53H24.84a.53.53,0,0,1,.53.53v1.17A1.06,1.06,0,0,1,24.3,23.42ZM7.67,21.73v.64H24.3v-.63Z"/><path class="cls-1" d="M7.15,21.73a.48.48,0,0,1-.26-.07.54.54,0,0,1-.21-.72l1.38-2.5A.53.53,0,0,1,9,19l-1.38,2.5A.53.53,0,0,1,7.15,21.73Z"/><path class="cls-1" d="M24.85,21.73a.53.53,0,0,1-.46-.28L23,19a.53.53,0,1,1,.93-.51l1.38,2.5a.54.54,0,0,1-.21.72A.48.48,0,0,1,24.85,21.73Z"/></g></svg>